<?xml version="1.0" encoding="UTF-8" standalone="no"?>
<!DOCTYPE svg PUBLIC "-//W3C//DTD SVG 1.1//EN"
 "http://www.w3.org/Graphics/SVG/1.1/DTD/svg11.dtd">
<!-- Generated by graphviz version 2.40.1 (20161225.0304)
 -->
<!-- Title: Graphical Class Hierarchy Pages: 1 -->
<svg width="159pt" height="64pt"
 viewBox="0.00 0.00 159.36 64.00" xmlns="http://www.w3.org/2000/svg" xmlns:xlink="http://www.w3.org/1999/xlink">
<g id="graph0" class="graph" transform="scale(1 1) rotate(0) translate(4 60)">
<title>Graphical Class Hierarchy</title>
<polygon fill="#ffffff" stroke="transparent" points="-4,4 -4,-60 155.3643,-60 155.3643,4 -4,4"/>
<!-- Node0 -->
<g id="node1" class="node">
<title>Node0</title>
<g id="a_node1"><a xlink:href="classsystem.html" target="_top" xlink:title="system">
<polygon fill="#ffffff" stroke="#000000" points="0,-18.5 0,-36.5 47.6699,-36.5 47.6699,-18.5 0,-18.5"/>
<text text-anchor="middle" x="23.835" y="-24.5" font-family="Helvetica,sans-Serif" font-size="10.00" fill="#000000">system</text>
</a>
</g>
</g>
<!-- Node1 -->
<g id="node2" class="node">
<title>Node1</title>
<g id="a_node2"><a xlink:href="classgame_of_life.html" target="_top" xlink:title="gameOfLife">
<polygon fill="#ffffff" stroke="#000000" points="83.6699,-37.5 83.6699,-55.5 151.3643,-55.5 151.3643,-37.5 83.6699,-37.5"/>
<text text-anchor="middle" x="117.5171" y="-43.5" font-family="Helvetica,sans-Serif" font-size="10.00" fill="#000000">gameOfLife</text>
</a>
</g>
</g>
<!-- Node0&#45;&gt;Node1 -->
<g id="edge1" class="edge">
<title>Node0&#45;&gt;Node1</title>
<path fill="none" stroke="#191970" d="M57.8198,-34.3926C66.2112,-36.0945 75.1993,-37.9174 83.5881,-39.6187"/>
<polygon fill="#191970" stroke="#191970" points="58.4566,-30.9506 47.9604,-32.393 57.0652,-37.8109 58.4566,-30.9506"/>
</g>
<!-- Node2 -->
<g id="node3" class="node">
<title>Node2</title>
<g id="a_node3"><a xlink:href="classgas_mixing.html" target="_top" xlink:title="gasMixing">
<polygon fill="#ffffff" stroke="#000000" points="87.0073,-.5 87.0073,-18.5 148.0269,-18.5 148.0269,-.5 87.0073,-.5"/>
<text text-anchor="middle" x="117.5171" y="-6.5" font-family="Helvetica,sans-Serif" font-size="10.00" fill="#000000">gasMixing</text>
</a>
</g>
</g>
<!-- Node0&#45;&gt;Node2 -->
<g id="edge2" class="edge">
<title>Node0&#45;&gt;Node2</title>
<path fill="none" stroke="#191970" d="M57.8364,-20.967C67.2855,-19.1515 77.49,-17.1908 86.7427,-15.413"/>
<polygon fill="#191970" stroke="#191970" points="57.1204,-17.5405 47.9604,-22.8646 58.4412,-24.4147 57.1204,-17.5405"/>
</g>
</g>
</svg>
